<svg id="svg" version="1.1" width="400" height="374" viewBox="0 0 400 374" xmlns="http://www.w3.org/2000/svg" xmlns:xlink="http://www.w3.org/1999/xlink" ><g id="svgg"><path id="path0" d="M74.333 23.500 L 74.333 39.333 102.500 39.333 L 130.667 39.333 130.667 23.500 L 130.667 7.667 102.500 7.667 L 74.333 7.667 74.333 23.500 M139.667 23.500 L 139.667 39.333 167.667 39.333 L 195.667 39.333 195.667 23.500 L 195.667 7.667 167.667 7.667 L 139.667 7.667 139.667 23.500 M204.667 23.500 L 204.667 39.333 232.833 39.333 L 261.000 39.333 261.000 23.500 L 261.000 7.667 232.833 7.667 L 204.667 7.667 204.667 23.500 M270.000 23.502 L 270.000 39.337 297.750 39.252 L 325.500 39.167 325.587 23.417 L 325.673 7.667 297.837 7.667 L 270.000 7.667 270.000 23.502 M125.905 53.561 C 125.628 54.028,116.617 83.106,116.575 83.670 C 116.547 84.036,171.272 192.914,171.799 193.541 C 171.818 193.564,176.349 193.656,181.868 193.745 L 191.902 193.908 192.144 176.665 C 192.333 163.218,192.294 159.113,191.968 158.024 C 191.103 155.139,187.975 152.710,184.382 152.136 C 182.609 151.852,182.615 151.826,185.083 149.349 C 194.995 139.404,205.865 139.320,208.864 149.167 C 209.666 151.799,209.931 160.460,209.742 177.917 L 209.568 194.000 215.534 193.998 C 218.815 193.998,223.177 193.900,225.228 193.782 L 228.955 193.567 256.678 138.752 L 284.400 83.936 279.637 68.631 C 277.018 60.212,274.761 53.439,274.621 53.579 C 274.482 53.719,263.396 75.958,249.987 103.000 L 225.606 152.167 227.174 171.602 C 228.036 182.291,228.637 191.141,228.510 191.268 C 228.383 191.396,224.579 191.549,220.056 191.608 L 211.833 191.716 211.951 173.204 C 212.095 150.530,211.889 148.569,208.894 144.087 C 203.338 135.773,189.161 139.482,179.922 151.667 L 178.279 153.833 181.223 154.056 C 185.790 154.402,188.231 155.580,189.530 158.067 C 190.075 159.111,190.123 163.407,189.778 180.664 L 189.557 191.771 180.898 191.561 C 176.136 191.445,172.192 191.303,172.133 191.244 C 172.074 191.185,172.738 182.397,173.609 171.715 L 175.192 152.293 150.733 102.897 C 124.316 49.547,126.139 53.168,125.905 53.561 M111.224 100.552 C 110.770 101.990,108.431 109.479,106.027 117.195 L 101.655 131.223 134.811 198.019 C 163.008 254.823,167.903 264.892,167.531 265.325 C 165.363 267.850,142.637 297.081,142.752 297.196 C 142.930 297.374,151.695 300.333,152.044 300.333 C 152.174 300.333,159.114 291.123,167.464 279.865 L 182.647 259.397 147.471 178.791 C 128.125 134.457,112.240 98.129,112.172 98.061 C 112.104 97.993,111.677 99.114,111.224 100.552 M253.509 178.282 C 234.265 222.402,218.515 258.801,218.509 259.169 C 218.497 260.031,248.004 299.968,248.666 299.986 C 249.252 300.002,257.385 297.354,257.746 297.029 C 257.881 296.908,252.368 289.652,245.496 280.905 C 238.623 272.159,233.000 264.871,233.000 264.710 C 233.000 264.549,247.412 235.411,265.026 199.959 C 282.640 164.507,297.505 134.498,298.060 133.274 L 299.068 131.048 294.005 114.774 C 291.221 105.823,288.843 98.402,288.721 98.282 C 288.600 98.162,272.754 134.162,253.509 178.282 M96.055 149.169 C 91.464 163.807,88.000 175.144,88.000 175.528 C 88.000 175.773,101.004 196.562,116.898 221.727 C 132.792 246.892,145.805 267.732,145.815 268.040 C 145.825 268.347,141.933 273.588,137.167 279.686 C 132.400 285.784,128.458 290.876,128.406 291.001 C 128.233 291.422,134.768 294.101,135.212 293.791 C 135.861 293.339,158.000 264.415,158.000 264.019 C 158.000 263.826,145.194 238.581,129.541 207.918 C 113.889 177.255,100.257 150.518,99.248 148.502 L 97.413 144.838 96.055 149.169 M272.887 204.687 C 245.652 258.065,242.652 264.097,243.053 264.676 C 247.964 271.757,265.603 293.871,266.167 293.653 C 266.533 293.511,268.070 292.819,269.581 292.114 L 272.330 290.833 263.963 280.167 C 259.361 274.300,255.378 269.176,255.112 268.780 C 254.655 268.098,256.207 265.560,283.798 221.875 L 312.967 175.691 308.253 160.512 C 305.661 152.164,303.456 145.335,303.353 145.337 C 303.251 145.340,289.541 172.047,272.887 204.687 M44.163 155.583 C 40.899 164.142,35.472 173.823,31.750 177.725 C 29.570 180.011,29.314 180.066,28.528 178.417 C 23.972 168.856,15.118 160.620,5.131 156.653 C 1.909 155.373,1.966 155.200,3.971 160.126 C 8.275 170.708,8.063 174.223,2.533 183.989 C -2.756 193.331,0.404 198.946,12.644 201.953 L 16.455 202.889 17.031 204.582 C 19.630 212.230,17.890 216.604,12.004 217.219 C 9.805 217.449,9.664 217.636,10.700 218.947 C 11.396 219.829,11.396 219.834,10.728 219.936 C 8.194 220.324,9.640 243.760,13.005 256.834 C 36.476 348.030,167.001 398.941,279.172 360.650 C 349.920 336.500,395.891 279.757,391.062 222.539 C 390.709 218.352,390.552 218.014,388.957 218.005 C 384.252 217.978,382.142 213.298,383.525 205.953 C 384.166 202.544,383.843 202.854,387.816 201.846 C 399.625 198.850,402.677 193.208,397.474 183.989 C 391.901 174.113,391.699 170.772,396.029 160.126 C 398.015 155.245,398.056 155.425,395.211 156.495 C 385.385 160.194,376.564 168.339,371.444 178.444 L 370.583 180.143 368.373 177.822 C 364.429 173.677,359.653 165.290,356.185 156.417 C 355.307 154.171,354.554 152.333,354.511 152.333 C 354.186 152.333,350.364 158.554,349.317 160.787 C 346.474 166.854,345.401 174.226,346.309 181.444 L 346.711 184.635 345.316 186.523 C 335.218 200.193,334.752 214.044,344.071 223.550 L 346.081 225.599 345.164 229.550 C 330.210 294.017,252.784 336.702,173.000 324.464 C 113.298 315.306,66.085 276.977,55.483 229.058 L 54.573 224.949 56.255 223.224 C 65.218 214.035,64.616 199.967,54.684 186.523 L 53.289 184.635 53.691 181.441 C 54.882 171.981,52.883 163.428,47.609 155.417 C 45.173 151.718,45.646 151.695,44.163 155.583 M47.456 161.250 C 52.454 171.187,52.072 182.803,46.353 194.833 C 43.992 199.798,44.336 199.563,38.814 199.980 C 16.986 201.626,3.000 198.102,3.000 190.955 C 3.000 189.824,3.453 188.746,5.285 185.522 C 10.258 176.770,11.144 171.513,8.848 164.385 C 7.759 161.008,7.732 161.041,10.271 162.585 C 16.378 166.299,22.666 173.579,26.537 181.417 C 27.991 184.361,27.815 184.274,30.026 183.153 C 34.433 180.920,40.602 172.009,45.189 161.250 C 45.717 160.012,46.188 159.000,46.237 159.000 C 46.285 159.000,46.834 160.012,47.456 161.250 M357.008 165.833 C 361.274 174.691,365.694 180.665,369.670 182.944 C 372.109 184.343,371.950 184.422,373.735 180.915 C 377.740 173.046,383.639 166.284,389.727 162.585 C 392.268 161.042,392.241 161.008,391.152 164.385 C 388.856 171.513,389.742 176.770,394.715 185.522 C 398.837 192.777,396.848 196.368,387.340 198.832 C 379.636 200.828,357.583 200.873,355.866 198.897 C 351.645 194.036,348.227 179.961,349.307 171.878 C 350.052 166.299,353.366 157.857,354.101 159.667 C 354.287 160.125,355.595 162.900,357.008 165.833 M56.185 195.074 C 61.454 205.430,60.213 215.763,52.935 222.130 C 50.437 224.315,50.786 224.321,32.650 221.790 L 16.427 219.527 17.661 218.632 C 21.503 215.849,22.191 211.857,20.183 204.000 L 19.970 203.167 28.068 203.149 C 37.199 203.130,44.868 202.540,45.705 201.792 C 46.495 201.087,49.756 194.618,51.020 191.249 L 52.115 188.332 53.410 190.249 C 54.123 191.304,55.371 193.475,56.185 195.074 M349.125 191.597 C 350.546 195.287,353.451 201.037,354.258 201.759 C 355.159 202.564,362.721 203.140,372.361 203.139 L 380.890 203.138 380.421 205.319 C 379.324 210.425,380.214 215.656,382.653 218.434 C 383.249 219.112,383.647 219.667,383.538 219.667 C 383.429 219.667,376.326 220.655,367.753 221.863 C 350.134 224.347,349.746 224.358,347.422 222.454 C 339.884 216.277,338.429 205.817,343.651 195.333 C 344.619 193.390,347.746 188.293,347.879 188.441 C 347.909 188.473,348.469 189.894,349.125 191.597 M32.751 224.673 C 43.222 226.143,51.818 227.380,51.852 227.423 C 51.886 227.465,52.473 229.750,53.155 232.500 C 74.321 317.809,198.411 357.637,286.836 307.503 C 318.684 289.446,343.677 257.655,348.487 229.085 C 348.798 227.238,347.705 227.537,360.902 225.681 C 384.515 222.361,387.717 221.939,387.902 222.124 C 388.240 222.463,388.076 235.735,387.686 239.500 C 378.862 324.834,273.296 384.731,162.167 367.458 C 85.931 355.609,27.171 309.155,14.823 250.973 C 13.275 243.678,11.915 224.772,12.777 222.525 C 13.040 221.842,11.096 221.633,32.751 224.673 M356.047 240.895 C 353.922 241.331,348.713 250.252,350.115 251.053 C 350.734 251.406,368.886 258.280,369.504 258.395 C 370.073 258.501,371.529 255.587,371.186 255.031 C 371.100 254.893,369.286 254.133,367.153 253.343 C 362.814 251.735,362.782 251.702,363.491 249.693 C 365.329 244.482,361.370 239.802,356.047 240.895 M36.467 244.445 L 26.101 247.453 26.554 248.977 C 26.802 249.814,27.069 250.673,27.147 250.884 C 27.243 251.148,28.672 250.867,31.717 249.985 C 34.154 249.280,36.169 248.732,36.195 248.768 C 36.222 248.804,36.505 249.635,36.825 250.614 C 39.142 257.704,48.993 257.077,49.002 249.839 C 49.004 248.307,47.518 242.099,47.038 241.635 C 46.926 241.526,42.169 242.791,36.467 244.445 M359.312 245.250 C 360.184 245.958,360.265 246.697,359.694 248.737 L 359.257 250.296 357.379 249.607 C 354.941 248.713,354.818 248.577,355.331 247.338 C 356.383 244.800,357.825 244.043,359.312 245.250 M44.923 248.645 C 45.287 252.436,41.857 253.101,40.485 249.506 C 39.798 247.709,39.834 247.658,42.276 246.959 C 44.515 246.318,44.711 246.443,44.923 248.645 M347.914 254.696 C 347.411 255.597,347.000 256.396,347.000 256.473 C 347.000 256.549,350.037 258.235,353.750 260.220 C 357.462 262.204,360.837 264.160,361.250 264.566 C 363.058 266.343,361.361 270.007,358.734 269.998 C 358.422 269.997,354.942 268.300,351.000 266.227 L 343.833 262.457 342.888 264.100 C 342.368 265.004,342.068 265.868,342.221 266.020 C 342.853 266.648,355.304 272.985,356.968 273.525 C 362.461 275.309,367.852 268.877,365.370 263.500 C 364.368 261.328,363.811 260.960,352.664 255.082 L 348.828 253.059 347.914 254.696 M41.333 259.696 C 36.108 261.904,31.717 263.824,31.576 263.962 C 31.383 264.152,32.370 267.025,32.818 267.580 C 32.854 267.624,34.747 266.855,37.025 265.869 C 39.303 264.884,41.277 264.143,41.411 264.222 C 41.545 264.301,40.152 266.215,38.314 268.475 L 34.972 272.585 35.801 274.459 C 36.834 276.795,36.370 277.019,40.194 272.333 C 41.990 270.133,43.499 268.333,43.548 268.333 C 43.597 268.333,44.184 268.704,44.852 269.158 C 48.660 271.742,54.328 268.938,54.332 264.469 C 54.334 262.550,51.801 255.655,51.102 255.674 C 50.954 255.678,46.558 257.488,41.333 259.696 M50.325 264.231 C 50.350 267.308,46.887 266.871,45.531 263.625 L 45.030 262.427 47.098 261.601 L 49.167 260.774 49.741 261.971 C 50.057 262.628,50.320 263.646,50.325 264.231 M47.762 274.373 L 38.403 279.710 41.252 284.605 C 42.819 287.297,44.148 289.558,44.206 289.628 C 44.367 289.823,46.070 289.051,46.933 288.391 L 47.699 287.806 45.806 284.555 C 43.652 280.856,43.550 281.285,47.042 279.365 L 48.963 278.308 50.867 281.571 C 51.914 283.365,52.800 284.873,52.835 284.922 C 53.005 285.156,55.999 283.226,55.989 282.888 C 55.983 282.675,55.168 281.150,54.178 279.500 C 52.173 276.160,52.155 276.311,54.723 274.981 L 55.945 274.348 57.840 277.591 C 58.882 279.374,59.771 280.873,59.816 280.922 C 59.995 281.113,63.000 279.256,63.000 278.953 C 63.000 278.570,57.703 269.395,57.359 269.182 C 57.228 269.102,52.910 271.437,47.762 274.373 M340.333 271.296 C 327.899 275.324,330.754 293.166,343.833 293.166 C 356.072 293.166,359.459 277.376,348.387 271.934 C 346.726 271.117,342.033 270.746,340.333 271.296 M347.225 275.859 C 352.272 278.784,352.591 285.282,347.837 288.297 C 345.132 290.013,342.497 289.938,339.710 288.066 C 331.873 282.803,339.061 271.127,347.225 275.859 M61.167 281.834 C 58.360 282.826,57.500 284.622,56.996 290.544 C 56.533 295.985,55.810 297.221,53.621 296.314 C 51.896 295.600,51.316 293.504,52.202 291.194 C 52.442 290.570,48.976 289.168,48.615 289.744 C 45.998 293.915,49.577 300.333,54.520 300.333 C 58.828 300.333,60.395 298.045,61.023 290.833 C 61.489 285.486,62.433 284.144,64.319 286.152 C 64.967 286.842,65.063 287.227,64.930 288.616 L 64.771 290.262 66.608 290.631 C 68.860 291.083,68.806 291.138,68.795 288.404 C 68.777 283.507,65.185 280.413,61.167 281.834 M324.649 288.294 C 323.834 288.823,322.155 290.288,320.919 291.550 L 318.672 293.844 326.335 301.502 L 333.998 309.159 335.410 307.747 L 336.822 306.335 333.542 303.042 C 329.578 299.063,329.585 299.057,335.789 300.923 L 340.744 302.414 342.257 300.901 L 343.770 299.388 339.968 298.217 C 337.877 297.573,335.523 296.860,334.736 296.633 C 333.673 296.326,333.356 296.088,333.502 295.708 C 335.563 290.336,329.426 285.197,324.649 288.294 M64.437 298.048 C 60.006 301.963,56.376 305.242,56.371 305.333 C 56.366 305.425,56.924 306.140,57.611 306.922 L 58.860 308.343 66.909 301.255 C 76.122 293.143,75.351 294.148,73.747 292.341 L 72.494 290.929 64.437 298.048 M329.333 292.000 C 330.350 293.016,330.166 294.182,328.750 295.696 L 327.500 297.032 325.833 295.325 L 324.167 293.618 325.500 292.481 C 327.033 291.173,328.342 291.009,329.333 292.000 M69.507 303.845 C 65.538 308.169,62.338 311.844,62.395 312.013 C 62.646 312.748,68.661 317.742,70.255 318.539 C 76.750 321.786,85.176 315.734,85.162 307.833 C 85.156 304.143,83.595 301.752,78.278 297.290 L 76.722 295.984 69.507 303.845 M313.461 298.983 C 300.038 302.187,301.790 321.778,315.500 321.778 C 324.473 321.778,330.509 311.066,325.095 304.751 L 324.167 303.668 320.069 306.816 C 315.369 310.426,315.638 310.016,316.876 311.690 C 318.067 313.300,317.782 313.340,320.575 311.170 C 322.973 309.307,323.337 309.277,323.331 310.944 C 323.317 315.217,317.925 318.860,313.568 317.540 C 304.855 314.901,307.198 302.667,316.416 302.667 C 318.090 302.667,318.320 302.336,318.329 299.917 L 318.333 298.667 316.417 298.701 C 315.362 298.720,314.032 298.847,313.461 298.983 M78.983 303.187 C 82.024 306.486,82.079 309.357,79.164 312.599 C 75.904 316.226,73.043 316.355,69.223 313.049 L 67.728 311.754 72.280 306.722 C 77.463 300.993,77.125 301.171,78.983 303.187 M87.567 312.750 C 79.424 324.269,78.356 325.799,78.426 325.849 C 80.722 327.506,87.413 332.051,87.738 332.176 C 88.014 332.282,88.610 331.759,89.251 330.850 L 90.309 329.349 87.151 327.147 C 85.189 325.779,84.079 324.799,84.218 324.556 C 85.043 323.125,87.150 320.333,87.406 320.333 C 87.576 320.333,89.005 321.233,90.581 322.333 C 94.002 324.720,93.630 324.676,94.919 322.847 L 95.967 321.360 92.817 319.164 C 91.084 317.956,89.667 316.890,89.667 316.795 C 89.667 316.645,91.024 314.698,91.692 313.889 C 91.818 313.737,93.349 314.601,95.094 315.809 L 98.267 318.005 99.434 316.380 L 100.602 314.755 95.873 311.544 C 93.273 309.778,91.042 308.333,90.917 308.333 C 90.792 308.333,89.284 310.321,87.567 312.750 M289.791 314.569 L 288.082 315.431 288.255 319.716 C 288.463 324.827,288.700 324.712,284.321 321.625 L 280.952 319.251 278.393 320.443 C 276.985 321.099,273.808 322.480,271.333 323.514 C 265.851 325.802,266.090 325.572,267.047 327.622 L 267.833 329.306 269.434 328.603 C 271.454 327.716,271.056 327.171,274.833 336.000 C 276.598 340.125,278.156 343.616,278.295 343.757 C 278.493 343.959,281.421 342.937,281.947 342.482 C 282.009 342.428,280.547 338.882,278.697 334.602 C 274.783 325.549,274.918 326.214,276.844 325.478 C 278.723 324.761,278.821 324.599,278.160 323.321 C 277.192 321.449,277.779 321.701,283.137 325.453 L 288.441 329.167 290.546 333.131 C 291.704 335.312,292.715 337.159,292.792 337.237 C 292.920 337.364,296.335 335.763,296.332 335.578 C 296.331 335.535,295.357 333.625,294.167 331.333 L 292.002 327.167 292.001 320.417 C 292.001 316.704,291.887 313.676,291.750 313.687 C 291.612 313.698,290.731 314.095,289.791 314.569 M96.700 325.003 C 93.932 330.142,91.667 334.468,91.667 334.616 C 91.667 334.925,94.931 336.519,95.128 336.307 C 95.200 336.230,96.497 333.842,98.010 331.000 C 101.052 325.289,101.668 324.222,101.828 324.388 C 101.887 324.449,102.278 328.224,102.697 332.776 L 103.459 341.052 105.103 341.886 C 106.008 342.344,106.864 342.595,107.007 342.443 C 107.295 342.136,116.568 324.979,116.867 324.199 C 117.033 323.766,113.803 321.706,113.514 322.061 C 113.467 322.119,111.953 324.930,110.150 328.307 C 108.347 331.684,106.810 334.262,106.734 334.036 C 106.659 333.810,106.275 329.997,105.882 325.563 L 105.167 317.500 103.450 316.580 L 101.734 315.660 96.700 325.003 M117.710 324.591 C 117.543 324.908,117.178 325.714,116.901 326.383 L 116.395 327.600 117.948 328.177 C 118.801 328.495,119.609 328.851,119.741 328.969 C 119.874 329.086,118.481 332.836,116.646 337.301 C 114.810 341.766,113.352 345.448,113.404 345.483 C 114.044 345.906,117.023 346.900,117.130 346.726 C 117.209 346.598,118.725 342.970,120.500 338.664 C 122.275 334.357,123.769 330.790,123.820 330.738 C 123.871 330.685,124.702 330.953,125.667 331.333 C 126.631 331.713,127.456 331.981,127.500 331.929 C 127.606 331.803,129.000 328.608,129.000 328.492 C 129.000 328.443,127.237 327.696,125.083 326.833 C 117.304 323.715,118.054 323.943,117.710 324.591 M262.417 326.943 C 260.684 327.599,260.377 326.129,264.638 337.605 C 268.864 348.988,268.214 347.896,270.317 347.140 C 272.414 346.386,272.612 347.507,268.376 336.167 C 264.504 325.803,264.686 326.084,262.417 326.943 M129.916 330.314 C 129.639 331.150,128.059 335.762,126.406 340.564 L 123.399 349.294 125.307 349.939 L 127.216 350.583 128.237 347.542 C 128.798 345.869,130.371 341.265,131.731 337.310 L 134.204 330.121 132.311 329.458 L 130.419 328.795 129.916 330.314 M253.500 330.209 C 250.883 330.751,246.000 332.200,246.000 332.436 C 246.000 332.712,252.012 352.757,252.140 352.907 C 252.186 352.961,255.371 352.054,255.902 351.836 C 255.939 351.820,255.375 349.878,254.647 347.520 C 253.919 345.161,253.406 343.149,253.506 343.049 C 253.607 342.949,255.372 344.540,257.428 346.586 L 261.167 350.305 263.083 349.736 C 265.570 348.997,265.603 349.090,261.350 344.850 L 257.700 341.212 258.534 340.439 C 262.518 336.747,258.765 329.119,253.500 330.209 M136.953 342.070 C 133.404 347.058,130.457 351.306,130.404 351.509 C 130.325 351.811,132.973 352.667,133.985 352.667 C 134.132 352.667,134.820 351.842,135.515 350.833 C 136.985 348.699,136.733 348.734,141.632 349.984 C 145.550 350.983,145.984 351.249,145.999 352.667 C 146.028 355.455,146.290 355.884,148.229 356.318 C 150.571 356.842,150.495 358.091,148.917 345.115 L 147.535 333.751 145.909 333.375 C 145.014 333.169,144.085 333.000,143.844 333.000 C 143.603 333.000,140.502 337.081,136.953 342.070 M240.066 333.662 C 239.461 333.805,238.883 334.006,238.781 334.108 C 238.679 334.210,239.286 337.534,240.131 341.494 C 242.193 351.163,241.965 352.667,238.433 352.667 C 235.744 352.667,235.632 352.436,233.529 342.553 C 231.799 334.421,232.245 335.276,229.991 335.781 C 227.822 336.267,227.834 335.324,229.878 344.606 C 232.274 355.493,234.063 357.575,239.937 356.316 C 245.845 355.049,246.549 352.254,243.980 340.251 C 242.352 332.644,242.600 333.062,240.066 333.662 M255.654 334.730 C 256.494 335.631,256.531 337.051,255.733 337.773 C 255.182 338.272,252.326 339.454,252.155 339.254 C 252.019 339.092,251.000 335.400,251.000 335.065 C 251.000 334.719,252.962 334.094,254.237 334.034 C 254.642 334.016,255.280 334.328,255.654 334.730 M157.303 336.054 C 157.224 336.352,153.783 357.173,153.807 357.215 C 153.888 357.361,163.681 358.762,163.792 358.643 C 163.865 358.564,164.028 357.730,164.155 356.788 L 164.385 355.077 161.511 354.649 C 159.930 354.414,158.587 354.134,158.527 354.027 C 158.466 353.921,159.046 349.972,159.815 345.254 C 161.046 337.709,161.151 336.656,160.691 336.528 C 159.800 336.280,157.335 335.935,157.303 336.054 M215.333 337.458 C 208.743 339.272,205.473 344.812,207.140 351.338 C 209.346 359.972,219.962 362.606,226.833 356.223 L 228.500 354.675 227.000 353.358 L 225.500 352.040 224.167 353.315 C 217.375 359.805,207.117 352.517,211.799 344.528 C 213.867 341.000,219.157 339.881,222.866 342.186 L 224.507 343.206 225.587 341.900 C 226.972 340.225,226.963 340.174,225.083 338.981 C 222.114 337.098,218.623 336.552,215.333 337.458 M180.494 338.798 C 179.118 339.397,177.345 341.494,177.281 342.595 C 177.120 345.422,177.922 346.824,181.984 350.814 C 185.100 353.873,185.648 354.789,185.041 355.923 C 184.062 357.754,181.019 357.430,179.800 355.366 C 179.061 354.116,178.997 354.112,177.149 355.195 C 172.869 357.703,181.440 362.479,186.113 360.189 C 190.795 357.896,190.197 352.726,184.671 347.712 C 181.341 344.691,180.819 343.961,181.319 343.026 C 182.081 341.604,184.584 341.984,185.789 343.705 L 186.285 344.413 187.226 343.742 C 189.391 342.200,189.464 341.929,188.078 340.579 C 185.913 338.469,182.882 337.757,180.494 338.798 M197.531 338.916 L 192.562 339.018 192.781 345.063 C 192.901 348.387,193.000 353.258,193.000 355.887 L 193.000 360.667 196.450 360.667 C 198.347 360.667,201.047 360.570,202.450 360.451 L 205.000 360.236 205.000 358.451 L 205.000 356.667 201.000 356.667 L 197.000 356.667 197.000 353.667 L 197.000 350.667 200.833 350.667 L 204.667 350.667 204.667 348.693 L 204.667 346.718 200.750 346.776 L 196.833 346.833 196.731 345.032 C 196.600 342.727,196.691 342.678,201.083 342.672 C 205.104 342.666,204.931 342.808,204.453 339.917 C 204.271 338.816,204.142 338.675,203.373 338.740 C 202.893 338.781,200.264 338.860,197.531 338.916 M144.793 343.003 C 145.344 347.208,145.578 346.908,142.334 346.167 C 138.988 345.403,138.909 345.916,143.278 340.023 C 144.275 338.678,144.210 338.551,144.793 343.003 " stroke="none" fill="#212621" fill-rule="evenodd"></path><path id="path1" d="M88.442 7.583 C 96.293 7.633,109.043 7.633,116.775 7.583 C 124.507 7.533,118.083 7.493,102.500 7.493 C 86.917 7.493,80.590 7.533,88.442 7.583 M139.486 7.750 C 139.398 7.979,139.367 15.142,139.417 23.667 L 139.507 39.167 139.587 23.417 L 139.667 7.667 167.663 7.667 L 195.660 7.667 195.750 23.583 L 195.840 39.500 195.920 23.417 L 196.000 7.333 167.823 7.333 C 145.589 7.333,139.612 7.421,139.486 7.750 M218.775 7.583 C 226.626 7.633,239.376 7.633,247.108 7.583 C 254.840 7.533,248.417 7.493,232.833 7.493 C 217.250 7.493,210.924 7.533,218.775 7.583 M269.819 7.750 C 269.731 7.979,269.700 15.142,269.750 23.667 L 269.840 39.167 269.920 23.419 L 270.000 7.670 297.917 7.583 L 325.833 7.496 297.906 7.415 C 275.812 7.350,269.946 7.420,269.819 7.750 M200.083 139.563 C 200.404 139.647,200.929 139.647,201.250 139.563 C 201.571 139.479,201.308 139.411,200.667 139.411 C 200.025 139.411,199.762 139.479,200.083 139.563 M199.254 141.902 C 199.669 141.982,200.269 141.979,200.587 141.896 C 200.906 141.812,200.567 141.747,199.833 141.751 C 199.100 141.754,198.839 141.823,199.254 141.902 M183.154 147.750 L 181.500 149.500 183.250 147.846 C 184.213 146.936,185.000 146.149,185.000 146.096 C 185.000 145.847,184.691 146.124,183.154 147.750 M212.146 165.667 C 212.146 170.708,212.193 172.771,212.249 170.250 C 212.306 167.729,212.306 163.604,212.249 161.083 C 212.193 158.563,212.146 160.625,212.146 165.667 M209.797 164.667 C 209.797 167.142,209.850 168.154,209.914 166.917 C 209.978 165.679,209.978 163.654,209.914 162.417 C 209.850 161.179,209.797 162.192,209.797 164.667 M17.000 168.167 C 17.622 168.808,18.206 169.333,18.297 169.333 C 18.389 169.333,17.955 168.808,17.333 168.167 C 16.711 167.525,16.128 167.000,16.036 167.000 C 15.944 167.000,16.378 167.525,17.000 168.167 M382.484 168.417 L 381.167 169.833 382.583 168.516 C 383.363 167.791,384.000 167.153,384.000 167.099 C 384.000 166.847,383.710 167.099,382.484 168.417 M189.795 173.000 C 189.795 175.292,189.848 176.229,189.913 175.083 C 189.979 173.938,189.979 172.063,189.913 170.917 C 189.848 169.771,189.795 170.708,189.795 173.000 M10.100 171.667 C 10.100 172.675,10.162 173.088,10.239 172.583 C 10.315 172.079,10.315 171.254,10.239 170.750 C 10.162 170.246,10.100 170.658,10.100 171.667 M389.767 171.667 C 389.767 172.675,389.829 173.088,389.905 172.583 C 389.982 172.079,389.982 171.254,389.905 170.750 C 389.829 170.246,389.767 170.658,389.767 171.667 M50.788 176.167 C 50.789 178.000,50.845 178.707,50.913 177.739 C 50.980 176.770,50.980 175.270,50.911 174.405 C 50.843 173.541,50.788 174.333,50.788 176.167 M349.122 176.167 C 349.123 178.000,349.179 178.707,349.246 177.739 C 349.314 176.770,349.313 175.270,349.245 174.405 C 349.176 173.541,349.121 174.333,349.122 176.167 M192.128 178.333 C 192.128 180.625,192.182 181.563,192.247 180.417 C 192.312 179.271,192.312 177.396,192.247 176.250 C 192.182 175.104,192.128 176.042,192.128 178.333 M209.409 187.917 L 209.333 194.333 211.583 194.269 L 213.833 194.205 211.757 194.087 L 209.681 193.969 209.583 187.734 L 209.484 181.500 209.409 187.917 M211.779 189.333 C 211.779 190.708,211.838 191.271,211.909 190.583 C 211.981 189.896,211.981 188.771,211.909 188.083 C 211.838 187.396,211.779 187.958,211.779 189.333 M189.333 190.992 C 189.333 191.188,186.978 191.357,183.417 191.417 L 177.500 191.516 183.583 191.592 C 188.802 191.656,189.667 191.596,189.667 191.167 C 189.667 190.892,189.592 190.667,189.500 190.667 C 189.408 190.667,189.333 190.813,189.333 190.992 M221.917 191.579 C 222.879 191.646,224.454 191.646,225.417 191.579 C 226.379 191.512,225.592 191.457,223.667 191.457 C 221.742 191.457,220.954 191.512,221.917 191.579 M175.936 193.916 C 178.192 193.974,181.792 193.973,183.936 193.915 C 186.079 193.857,184.233 193.810,179.833 193.810 C 175.433 193.811,173.679 193.858,175.936 193.916 M225.259 193.911 C 226.043 193.982,227.243 193.981,227.925 193.909 C 228.608 193.837,227.967 193.780,226.500 193.781 C 225.033 193.782,224.475 193.841,225.259 193.911 M48.568 196.843 C 48.076 197.846,47.745 198.667,47.831 198.667 C 48.056 198.667,49.737 195.293,49.587 195.143 C 49.519 195.075,49.061 195.839,48.568 196.843 M350.333 195.122 C 350.333 195.483,351.990 198.667,352.178 198.667 C 352.270 198.667,351.949 197.879,351.466 196.917 C 350.536 195.066,350.333 194.745,350.333 195.122 M39.083 199.896 C 39.404 199.980,39.929 199.980,40.250 199.896 C 40.571 199.813,40.308 199.744,39.667 199.744 C 39.025 199.744,38.762 199.813,39.083 199.896 M359.750 199.896 C 360.071 199.980,360.596 199.980,360.917 199.896 C 361.238 199.813,360.975 199.744,360.333 199.744 C 359.692 199.744,359.429 199.813,359.750 199.896 M21.587 200.236 C 22.002 200.315,22.602 200.312,22.921 200.229 C 23.239 200.146,22.900 200.080,22.167 200.084 C 21.433 200.088,21.173 200.156,21.587 200.236 M33.917 200.235 C 34.329 200.315,35.004 200.315,35.417 200.235 C 35.829 200.156,35.492 200.091,34.667 200.091 C 33.842 200.091,33.504 200.156,33.917 200.235 M364.583 200.235 C 364.996 200.315,365.671 200.315,366.083 200.235 C 366.496 200.156,366.158 200.091,365.333 200.091 C 364.508 200.091,364.171 200.156,364.583 200.235 M377.254 200.236 C 377.669 200.315,378.269 200.312,378.587 200.229 C 378.906 200.146,378.567 200.080,377.833 200.084 C 377.100 200.088,376.839 200.156,377.254 200.236 M39.250 202.902 C 39.662 202.981,40.337 202.981,40.750 202.902 C 41.162 202.822,40.825 202.757,40.000 202.757 C 39.175 202.757,38.837 202.822,39.250 202.902 M359.250 202.902 C 359.662 202.981,360.337 202.981,360.750 202.902 C 361.162 202.822,360.825 202.757,360.000 202.757 C 359.175 202.757,358.837 202.822,359.250 202.902 M20.222 203.222 C 20.100 203.344,20.002 203.607,20.005 203.806 C 20.008 204.036,20.101 204.023,20.262 203.771 C 20.400 203.554,21.260 203.319,22.173 203.248 L 23.833 203.120 22.139 203.060 C 21.207 203.027,20.344 203.100,20.222 203.222 M33.917 203.241 C 34.512 203.315,35.487 203.315,36.083 203.241 C 36.679 203.167,36.192 203.107,35.000 203.107 C 33.808 203.107,33.321 203.167,33.917 203.241 M363.917 203.241 C 364.512 203.315,365.488 203.315,366.083 203.241 C 366.679 203.167,366.192 203.107,365.000 203.107 C 363.808 203.107,363.321 203.167,363.917 203.241 M377.083 203.239 C 377.587 203.315,378.412 203.315,378.917 203.239 C 379.421 203.162,379.008 203.100,378.000 203.100 C 376.992 203.100,376.579 203.162,377.083 203.239 M340.437 207.500 C 340.438 208.600,340.501 209.010,340.575 208.411 C 340.649 207.812,340.648 206.912,340.572 206.411 C 340.495 205.910,340.435 206.400,340.437 207.500 M59.429 207.500 C 59.431 208.417,59.496 208.752,59.573 208.245 C 59.649 207.739,59.647 206.989,59.568 206.579 C 59.489 206.169,59.426 206.583,59.429 207.500 M379.781 210.167 C 379.782 211.633,379.841 212.192,379.911 211.408 C 379.982 210.624,379.981 209.424,379.909 208.741 C 379.837 208.059,379.780 208.700,379.781 210.167 M18.812 217.750 L 17.833 218.833 18.917 217.854 C 19.512 217.316,20.000 216.828,20.000 216.771 C 20.000 216.513,19.725 216.740,18.812 217.750 M16.853 219.177 C 16.215 219.659,16.216 219.667,16.881 219.667 C 17.258 219.667,17.556 219.446,17.556 219.167 C 17.556 218.892,17.543 218.671,17.528 218.677 C 17.512 218.683,17.209 218.908,16.853 219.177 M53.484 221.417 L 52.167 222.833 53.583 221.516 C 54.901 220.290,55.153 220.000,54.901 220.000 C 54.847 220.000,54.209 220.637,53.484 221.417 M346.167 221.333 C 346.883 222.067,347.544 222.667,347.635 222.667 C 347.727 222.667,347.216 222.067,346.500 221.333 C 345.784 220.600,345.123 220.000,345.031 220.000 C 344.940 220.000,345.451 220.600,346.167 221.333 M12.757 223.667 C 12.757 224.492,12.822 224.829,12.902 224.417 C 12.981 224.004,12.981 223.329,12.902 222.917 C 12.822 222.504,12.757 222.842,12.757 223.667 M47.917 223.902 C 48.329 223.981,49.004 223.981,49.417 223.902 C 49.829 223.822,49.492 223.757,48.667 223.757 C 47.842 223.757,47.504 223.822,47.917 223.902 M350.923 223.908 C 351.522 223.982,352.422 223.981,352.923 223.905 C 353.424 223.829,352.933 223.768,351.833 223.770 C 350.733 223.772,350.324 223.834,350.923 223.908 M388.103 229.167 C 388.105 230.267,388.167 230.676,388.242 230.077 C 388.316 229.478,388.314 228.578,388.238 228.077 C 388.162 227.576,388.101 228.067,388.103 229.167 M12.757 235.000 C 12.757 235.825,12.822 236.162,12.902 235.750 C 12.981 235.338,12.981 234.662,12.902 234.250 C 12.822 233.838,12.757 234.175,12.757 235.000 M387.744 236.667 C 387.744 237.308,387.813 237.571,387.896 237.250 C 387.980 236.929,387.980 236.404,387.896 236.083 C 387.813 235.762,387.744 236.025,387.744 236.667 M364.084 246.833 C 364.088 247.567,364.156 247.827,364.236 247.413 C 364.315 246.998,364.312 246.398,364.229 246.079 C 364.146 245.761,364.080 246.100,364.084 246.833 M49.084 249.833 C 49.088 250.567,49.156 250.827,49.236 250.413 C 49.315 249.998,49.312 249.398,49.229 249.079 C 49.146 248.761,49.080 249.100,49.084 249.833 M342.750 270.905 C 343.254 270.982,344.079 270.982,344.583 270.905 C 345.087 270.829,344.675 270.767,343.667 270.767 C 342.658 270.767,342.246 270.829,342.750 270.905 M335.479 274.083 L 334.500 275.167 335.583 274.188 C 336.179 273.649,336.667 273.162,336.667 273.104 C 336.667 272.847,336.392 273.074,335.479 274.083 M320.649 280.917 L 319.500 282.167 320.750 281.018 C 321.913 279.949,322.153 279.667,321.899 279.667 C 321.843 279.667,321.281 280.229,320.649 280.917 M355.077 281.333 C 355.077 281.975,355.146 282.237,355.230 281.917 C 355.314 281.596,355.314 281.071,355.230 280.750 C 355.146 280.429,355.077 280.692,355.077 281.333 M83.327 284.417 C 85.249 286.387,86.862 288.000,86.911 288.000 C 87.151 288.000,86.745 287.573,83.417 284.327 L 79.833 280.833 83.327 284.417 M332.084 282.167 C 332.088 282.900,332.156 283.161,332.236 282.746 C 332.315 282.331,332.312 281.731,332.229 281.413 C 332.146 281.094,332.080 281.433,332.084 282.167 M351.084 282.500 C 351.088 283.233,351.156 283.494,351.236 283.079 C 351.315 282.665,351.312 282.065,351.229 281.746 C 351.146 281.427,351.080 281.767,351.084 282.500 M313.146 288.417 L 312.167 289.500 313.250 288.521 C 313.846 287.983,314.333 287.495,314.333 287.438 C 314.333 287.180,314.058 287.407,313.146 288.417 M61.077 290.000 C 61.077 290.642,61.146 290.904,61.230 290.583 C 61.314 290.262,61.314 289.737,61.230 289.417 C 61.146 289.096,61.077 289.358,61.077 290.000 M351.649 290.250 L 350.500 291.500 351.750 290.351 C 352.913 289.282,353.153 289.000,352.899 289.000 C 352.843 289.000,352.281 289.563,351.649 290.250 M320.576 291.590 L 318.337 293.846 322.919 298.340 L 327.500 302.833 323.084 298.330 L 318.668 293.826 320.914 291.580 C 322.150 290.344,323.083 289.333,322.988 289.333 C 322.893 289.333,321.808 290.349,320.576 291.590 M56.751 291.500 C 56.754 292.233,56.823 292.494,56.902 292.079 C 56.982 291.665,56.979 291.065,56.896 290.746 C 56.812 290.427,56.747 290.767,56.751 291.500 M343.088 293.573 C 343.595 293.649,344.345 293.647,344.755 293.568 C 345.165 293.489,344.750 293.426,343.833 293.429 C 342.917 293.431,342.581 293.496,343.088 293.573 M75.479 297.083 L 74.500 298.167 75.583 297.188 C 76.593 296.275,76.820 296.000,76.562 296.000 C 76.505 296.000,76.017 296.487,75.479 297.083 M81.500 300.333 C 82.403 301.250,83.217 302.000,83.308 302.000 C 83.400 302.000,82.736 301.250,81.833 300.333 C 80.930 299.417,80.117 298.667,80.025 298.667 C 79.933 298.667,80.597 299.417,81.500 300.333 M330.537 299.607 C 330.444 299.757,331.898 301.370,333.767 303.190 L 337.167 306.500 333.906 303.150 C 332.112 301.307,330.750 299.695,330.878 299.566 C 331.006 299.438,331.020 299.333,330.909 299.333 C 330.797 299.333,330.630 299.456,330.537 299.607 M72.146 300.750 L 71.167 301.833 72.250 300.854 C 73.260 299.942,73.487 299.667,73.229 299.667 C 73.172 299.667,72.684 300.154,72.146 300.750 M53.921 300.569 C 54.335 300.649,54.935 300.646,55.254 300.562 C 55.573 300.479,55.233 300.414,54.500 300.417 C 53.767 300.421,53.506 300.489,53.921 300.569 M78.500 303.000 C 79.216 303.733,79.877 304.333,79.969 304.333 C 80.060 304.333,79.549 303.733,78.833 303.000 C 78.117 302.267,77.456 301.667,77.365 301.667 C 77.273 301.667,77.784 302.267,78.500 303.000 M68.479 304.750 L 67.500 305.833 68.583 304.854 C 69.179 304.316,69.667 303.828,69.667 303.771 C 69.667 303.513,69.392 303.740,68.479 304.750 M73.479 305.417 L 72.500 306.500 73.583 305.521 C 74.593 304.608,74.820 304.333,74.562 304.333 C 74.505 304.333,74.017 304.821,73.479 305.417 M81.084 307.833 C 81.088 308.567,81.156 308.827,81.236 308.413 C 81.315 307.998,81.312 307.398,81.229 307.079 C 81.146 306.761,81.080 307.100,81.084 307.833 M44.000 307.438 C 44.000 307.495,44.487 307.983,45.083 308.521 L 46.167 309.500 45.188 308.417 C 44.275 307.407,44.000 307.180,44.000 307.438 M64.812 308.750 L 63.833 309.833 64.917 308.854 C 65.926 307.942,66.153 307.667,65.896 307.667 C 65.838 307.667,65.351 308.154,64.812 308.750 M69.812 309.417 L 68.833 310.500 69.917 309.521 C 70.926 308.608,71.153 308.333,70.896 308.333 C 70.838 308.333,70.351 308.821,69.812 309.417 M350.328 313.917 L 346.167 318.167 350.417 314.005 C 354.364 310.139,354.818 309.667,354.578 309.667 C 354.530 309.667,352.617 311.579,350.328 313.917 M323.077 311.000 C 323.077 311.642,323.146 311.904,323.230 311.583 C 323.314 311.262,323.314 310.737,323.230 310.417 C 323.146 310.096,323.077 310.358,323.077 311.000 M327.084 311.167 C 327.088 311.900,327.156 312.161,327.236 311.746 C 327.315 311.331,327.312 310.731,327.229 310.413 C 327.146 310.094,327.080 310.433,327.084 311.167 M48.000 311.758 C 48.000 311.809,49.163 312.971,50.583 314.342 L 53.167 316.833 50.675 314.250 C 48.361 311.851,48.000 311.515,48.000 311.758 M288.123 320.667 C 288.123 322.592,288.178 323.379,288.246 322.417 C 288.313 321.454,288.313 319.879,288.246 318.917 C 288.178 317.954,288.123 318.742,288.123 320.667 M105.411 320.333 C 105.411 320.975,105.479 321.237,105.563 320.917 C 105.647 320.596,105.647 320.071,105.563 319.750 C 105.479 319.429,105.411 319.692,105.411 320.333 M292.095 326.167 C 292.098 327.083,292.163 327.419,292.239 326.912 C 292.316 326.405,292.314 325.655,292.235 325.245 C 292.156 324.835,292.093 325.250,292.095 326.167 M185.417 329.230 C 185.737 329.314,186.262 329.314,186.583 329.230 C 186.904 329.146,186.642 329.077,186.000 329.077 C 185.358 329.077,185.096 329.146,185.417 329.230 M214.417 329.230 C 214.737 329.314,215.262 329.314,215.583 329.230 C 215.904 329.146,215.642 329.077,215.000 329.077 C 214.358 329.077,214.096 329.146,214.417 329.230 M190.417 329.572 C 190.921 329.648,191.746 329.648,192.250 329.572 C 192.754 329.496,192.342 329.433,191.333 329.433 C 190.325 329.433,189.912 329.496,190.417 329.572 M208.589 329.575 C 209.188 329.649,210.088 329.648,210.589 329.572 C 211.090 329.495,210.600 329.435,209.500 329.437 C 208.400 329.438,207.990 329.501,208.589 329.575 M197.750 338.912 C 198.621 338.980,200.046 338.980,200.917 338.912 C 201.787 338.843,201.075 338.787,199.333 338.787 C 197.592 338.787,196.879 338.843,197.750 338.912 M188.266 340.764 C 189.286 341.817,189.306 341.887,188.748 342.503 C 188.175 343.135,188.178 343.135,188.925 342.513 L 189.683 341.882 188.609 340.774 C 188.019 340.165,187.461 339.667,187.369 339.667 C 187.278 339.667,187.681 340.160,188.266 340.764 M198.917 342.912 C 199.879 342.980,201.454 342.980,202.417 342.912 C 203.379 342.845,202.592 342.790,200.667 342.790 C 198.742 342.790,197.954 342.845,198.917 342.912 M196.806 344.915 L 196.833 346.833 199.500 346.854 L 202.167 346.874 199.600 346.757 L 197.032 346.640 196.906 344.818 L 196.779 342.997 196.806 344.915 M184.167 347.333 C 184.883 348.067,185.544 348.667,185.635 348.667 C 185.727 348.667,185.216 348.067,184.500 347.333 C 183.784 346.600,183.123 346.000,183.031 346.000 C 182.940 346.000,183.451 346.600,184.167 347.333 M192.790 350.333 C 192.790 352.258,192.845 353.046,192.912 352.083 C 192.980 351.121,192.980 349.546,192.912 348.583 C 192.845 347.621,192.790 348.408,192.790 350.333 M179.667 348.833 C 180.289 349.475,180.872 350.000,180.964 350.000 C 181.056 350.000,180.622 349.475,180.000 348.833 C 179.378 348.192,178.794 347.667,178.703 347.667 C 178.611 347.667,179.045 348.192,179.667 348.833 M204.757 349.333 C 204.757 350.158,204.822 350.496,204.902 350.083 C 204.981 349.671,204.981 348.996,204.902 348.583 C 204.822 348.171,204.757 348.508,204.757 349.333 M197.909 350.907 C 198.501 350.981,199.551 350.982,200.243 350.910 C 200.934 350.838,200.450 350.778,199.167 350.776 C 197.883 350.775,197.317 350.834,197.909 350.907 M217.417 355.896 C 217.737 355.980,218.262 355.980,218.583 355.896 C 218.904 355.813,218.642 355.744,218.000 355.744 C 217.358 355.744,217.096 355.813,217.417 355.896 M200.917 356.577 C 201.696 356.648,202.971 356.648,203.750 356.577 C 204.529 356.507,203.892 356.450,202.333 356.450 C 200.775 356.450,200.137 356.507,200.917 356.577 M217.250 359.902 C 217.662 359.981,218.338 359.981,218.750 359.902 C 219.162 359.822,218.825 359.757,218.000 359.757 C 217.175 359.757,216.838 359.822,217.250 359.902 M202.417 360.572 C 202.921 360.648,203.746 360.648,204.250 360.572 C 204.754 360.496,204.342 360.433,203.333 360.433 C 202.325 360.433,201.912 360.496,202.417 360.572 M220.417 369.563 C 220.737 369.647,221.262 369.647,221.583 369.563 C 221.904 369.479,221.642 369.411,221.000 369.411 C 220.358 369.411,220.096 369.479,220.417 369.563 M183.921 369.902 C 184.335 369.982,184.935 369.979,185.254 369.896 C 185.573 369.812,185.233 369.747,184.500 369.751 C 183.767 369.754,183.506 369.823,183.921 369.902 M215.921 369.902 C 216.335 369.982,216.935 369.979,217.254 369.896 C 217.573 369.812,217.233 369.747,216.500 369.751 C 215.767 369.754,215.506 369.823,215.921 369.902 M189.909 370.241 C 190.501 370.314,191.551 370.315,192.243 370.243 C 192.934 370.171,192.450 370.111,191.167 370.109 C 189.883 370.108,189.317 370.167,189.909 370.241 M208.243 370.241 C 208.834 370.314,209.884 370.315,210.576 370.243 C 211.267 370.171,210.783 370.111,209.500 370.109 C 208.217 370.108,207.651 370.167,208.243 370.241 " stroke="none" fill="#7d6912" fill-rule="evenodd"></path><path id="path2" d="M130.821 23.333 C 130.821 32.042,130.864 35.604,130.916 31.250 C 130.969 26.896,130.969 19.771,130.916 15.417 C 130.864 11.063,130.821 14.625,130.821 23.333 M261.154 23.333 C 261.154 32.042,261.197 35.604,261.250 31.250 C 261.302 26.896,261.302 19.771,261.250 15.417 C 261.197 11.063,261.154 14.625,261.154 23.333 " stroke="none" fill="#ffa200" fill-rule="evenodd"></path><path id="path3" d="M66.667 111.263 C 66.667 205.763,66.739 223.101,67.144 226.346 C 75.004 289.324,160.932 329.842,243.500 309.504 C 290.013 298.046,324.574 267.950,331.797 232.614 C 333.360 224.965,333.333 227.097,333.333 110.798 L 333.333 0.000 200.000 0.000 L 66.667 0.000 66.667 111.263 M130.833 23.333 L 130.833 39.167 102.583 39.252 L 74.333 39.337 74.333 23.333 L 74.333 7.330 102.583 7.415 L 130.833 7.500 130.833 23.333 M196.000 23.333 L 196.000 39.333 167.667 39.333 L 139.333 39.333 139.333 23.333 L 139.333 7.333 167.667 7.333 L 196.000 7.333 196.000 23.333 M261.167 23.333 L 261.167 39.167 232.917 39.252 L 204.667 39.337 204.667 23.333 L 204.667 7.330 232.917 7.415 L 261.167 7.500 261.167 23.333 M325.667 23.333 L 325.667 39.333 297.667 39.333 L 269.667 39.333 269.667 23.333 L 269.667 7.333 297.667 7.333 L 325.667 7.333 325.667 23.333 M325.667 132.942 C 325.667 223.118,325.654 224.015,324.291 230.819 C 319.344 255.509,296.669 280.607,268.167 292.938 C 264.041 294.723,258.846 296.766,258.417 296.772 C 258.188 296.775,258.000 296.894,258.000 297.037 C 258.000 297.301,248.902 300.387,248.427 300.284 C 248.284 300.253,247.942 300.322,247.667 300.438 C 236.335 305.202,201.669 308.381,183.167 306.351 C 173.660 305.308,164.201 303.619,156.667 301.620 C 154.558 301.060,152.458 300.537,152.000 300.457 C 151.161 300.310,143.063 297.707,142.567 297.425 C 142.421 297.342,142.496 297.025,142.734 296.720 C 143.121 296.226,143.105 296.215,142.587 296.621 C 142.083 297.016,141.535 296.891,138.420 295.673 C 107.101 283.418,83.354 260.073,76.702 235.000 C 74.322 226.028,74.522 234.744,74.417 135.250 L 74.323 45.667 199.995 45.667 L 325.667 45.667 325.667 132.942 M91.164 55.583 C 89.165 61.346,89.662 61.000,83.384 61.000 L 78.229 61.000 82.531 64.217 C 84.897 65.987,86.889 67.480,86.957 67.536 C 87.025 67.591,86.388 69.919,85.542 72.708 C 84.695 75.498,84.049 77.827,84.106 77.884 C 84.163 77.940,85.849 76.844,87.854 75.447 C 89.860 74.050,91.832 72.689,92.238 72.423 C 92.934 71.966,93.228 72.113,97.363 74.983 C 99.776 76.658,101.786 77.984,101.831 77.931 C 101.876 77.877,101.262 75.733,100.467 73.167 C 99.672 70.600,99.024 68.275,99.027 68.000 C 99.029 67.725,100.921 66.075,103.232 64.333 L 107.433 61.167 102.076 61.000 C 99.131 60.908,96.655 60.758,96.576 60.667 C 96.497 60.575,95.697 58.364,94.799 55.752 C 93.901 53.141,93.074 51.004,92.960 51.002 C 92.847 51.001,92.038 53.063,91.164 55.583 M304.808 56.586 L 303.116 61.500 298.308 61.740 C 295.664 61.872,293.229 62.022,292.897 62.073 C 292.494 62.136,293.682 63.200,296.480 65.283 C 298.783 66.998,300.664 68.573,300.661 68.783 C 300.658 68.994,299.986 71.332,299.168 73.979 C 298.350 76.626,297.715 78.825,297.757 78.865 C 297.799 78.905,299.755 77.602,302.103 75.969 C 307.224 72.409,306.270 72.407,311.333 75.987 C 313.625 77.607,315.535 78.901,315.578 78.861 C 315.620 78.822,314.983 76.592,314.161 73.906 C 313.339 71.220,312.667 68.905,312.667 68.761 C 312.668 68.617,314.552 67.075,316.855 65.333 C 319.675 63.200,320.844 62.136,320.438 62.073 C 320.105 62.022,317.670 61.872,315.025 61.740 L 310.218 61.500 308.525 56.586 C 307.595 53.884,306.758 51.672,306.667 51.672 C 306.575 51.672,305.739 53.884,304.808 56.586 M199.008 55.825 L 198.232 56.650 198.620 62.409 C 199.115 69.775,199.109 70.333,198.543 70.333 C 198.039 70.333,197.996 70.118,197.136 63.167 C 196.477 57.848,196.540 58.043,195.716 58.789 C 195.077 59.367,195.227 60.480,197.192 69.750 C 197.348 70.487,197.267 70.667,196.776 70.667 C 196.441 70.667,195.244 71.104,194.116 71.637 L 192.065 72.608 188.865 67.804 C 186.170 63.759,185.533 63.000,184.832 63.000 C 183.678 63.000,183.596 62.850,187.583 68.032 C 189.554 70.593,191.167 72.859,191.167 73.067 C 191.167 74.118,190.121 73.188,186.005 68.478 C 181.697 63.547,181.458 63.333,180.255 63.333 C 179.027 63.333,179.000 63.360,179.002 64.583 C 179.005 65.780,179.225 66.025,184.169 70.319 C 187.009 72.786,189.333 74.915,189.333 75.049 C 189.333 75.918,188.165 75.261,183.938 72.017 C 178.678 67.979,178.667 67.973,178.667 69.179 C 178.667 69.900,179.378 70.490,183.502 73.185 L 188.338 76.346 187.550 77.923 C 187.117 78.790,186.663 79.912,186.541 80.417 C 186.264 81.567,186.273 81.567,180.030 80.307 C 175.183 79.329,174.914 79.308,174.303 79.860 C 173.430 80.650,173.292 80.606,178.871 81.336 C 185.712 82.231,186.000 82.292,186.000 82.848 C 186.000 83.422,186.103 83.421,178.167 82.859 L 172.167 82.433 171.243 83.314 L 170.318 84.194 171.250 85.087 L 172.182 85.979 178.991 85.501 C 182.736 85.237,185.863 85.085,185.941 85.163 C 186.611 85.834,185.303 86.242,180.657 86.812 C 177.860 87.156,175.129 87.528,174.587 87.638 L 173.603 87.839 174.298 88.468 C 174.981 89.086,175.086 89.079,180.247 88.048 C 186.199 86.860,186.333 86.846,186.334 87.417 C 186.334 87.646,186.779 88.774,187.322 89.923 L 188.311 92.012 183.489 95.225 C 179.568 97.838,178.667 98.584,178.667 99.219 C 178.667 100.360,178.733 100.324,183.966 96.341 C 188.302 93.041,189.333 92.460,189.333 93.317 C 189.333 93.469,187.013 95.598,184.176 98.047 C 179.246 102.304,179.019 102.555,179.010 103.750 C 179.000 104.979,179.021 105.000,180.282 105.000 C 181.518 105.000,181.729 104.813,186.154 99.805 C 189.325 96.217,190.851 94.718,191.090 94.957 C 191.465 95.332,191.425 95.392,186.769 101.415 C 183.653 105.444,183.667 105.417,184.897 105.272 C 185.635 105.185,186.358 104.337,188.985 100.476 L 192.177 95.786 193.672 96.550 C 194.494 96.971,195.662 97.412,196.268 97.531 C 197.247 97.724,197.348 97.845,197.183 98.624 C 195.131 108.317,195.020 109.142,195.676 109.811 C 196.489 110.640,196.444 110.802,197.350 103.750 C 197.900 99.471,198.205 98.000,198.544 98.000 C 199.107 98.000,199.114 98.705,198.623 106.073 L 198.247 111.732 199.123 112.608 L 200.000 113.485 200.874 112.610 L 201.749 111.736 201.373 106.451 C 200.861 99.232,200.879 98.000,201.500 98.000 C 201.775 98.000,202.000 98.182,202.000 98.404 C 202.000 99.143,203.430 109.831,203.547 109.970 C 203.611 110.045,203.942 109.854,204.284 109.545 C 204.923 108.966,204.773 107.853,202.808 98.583 C 202.652 97.847,202.733 97.666,203.224 97.666 C 203.559 97.665,204.733 97.240,205.833 96.721 L 207.833 95.778 211.000 100.472 C 213.647 104.397,214.317 105.184,215.083 105.272 C 216.347 105.418,216.414 105.541,212.482 100.485 C 208.736 95.667,208.433 95.184,208.954 94.862 C 209.137 94.748,211.343 96.983,213.855 99.828 C 218.266 104.822,218.468 105.000,219.712 105.000 C 220.980 105.000,221.000 104.981,220.989 103.750 C 220.979 102.555,220.751 102.304,215.822 98.054 C 212.987 95.609,210.667 93.480,210.667 93.324 C 210.667 92.446,211.711 93.035,216.041 96.356 C 220.655 99.896,220.837 100.000,220.942 99.152 C 221.001 98.668,221.001 98.232,220.942 98.184 C 220.882 98.135,218.770 96.720,216.247 95.040 L 211.661 91.984 212.285 90.742 C 212.629 90.059,213.092 88.938,213.314 88.250 C 213.799 86.751,213.259 86.771,219.763 88.019 C 224.796 88.984,225.106 89.007,225.705 88.465 C 226.550 87.700,226.831 87.784,220.820 87.008 C 217.894 86.630,215.162 86.246,214.750 86.154 C 213.972 85.981,213.683 84.991,214.417 85.012 C 214.646 85.018,217.758 85.235,221.333 85.494 L 227.833 85.964 228.757 85.052 L 229.682 84.139 228.757 83.293 L 227.833 82.447 221.833 82.867 C 213.916 83.422,214.000 83.423,214.000 82.848 C 214.000 82.302,214.110 82.279,221.137 81.337 C 226.723 80.588,226.558 80.640,225.724 79.885 C 225.150 79.366,224.748 79.401,219.423 80.435 L 213.734 81.540 213.330 80.187 C 213.108 79.442,212.640 78.273,212.292 77.588 L 211.657 76.342 216.320 73.254 C 220.502 70.485,220.984 70.068,220.991 69.209 C 220.998 68.493,220.895 68.333,220.583 68.574 C 211.955 75.252,210.667 76.094,210.667 75.049 C 210.667 74.915,212.991 72.786,215.831 70.319 C 220.775 66.025,220.995 65.780,220.998 64.583 C 221.000 63.357,220.976 63.333,219.729 63.333 C 218.505 63.333,218.292 63.524,213.979 68.476 C 211.516 71.304,209.359 73.582,209.188 73.538 C 208.430 73.345,208.885 72.559,212.336 68.096 C 216.411 62.828,216.314 63.000,215.186 63.000 C 214.511 63.000,213.811 63.824,211.105 67.799 L 207.837 72.597 206.669 72.002 C 206.026 71.675,204.856 71.215,204.069 70.980 C 202.778 70.594,202.656 70.469,202.821 69.693 C 204.783 60.416,204.924 59.368,204.284 58.789 C 203.942 58.479,203.611 58.288,203.547 58.363 C 203.430 58.502,202.000 69.191,202.000 69.930 C 202.000 70.152,201.775 70.333,201.500 70.333 C 200.879 70.333,200.861 69.101,201.372 61.897 L 201.747 56.628 200.982 55.814 C 200.036 54.807,199.964 54.807,199.008 55.825 M178.923 154.242 C 179.522 154.316,180.422 154.314,180.923 154.238 C 181.424 154.162,180.933 154.101,179.833 154.103 C 178.733 154.105,178.324 154.167,178.923 154.242 M209.417 155.500 C 209.421 156.233,209.489 156.494,209.569 156.079 C 209.649 155.665,209.646 155.065,209.562 154.746 C 209.479 154.427,209.414 154.767,209.417 155.500 M212.084 155.500 C 212.088 156.233,212.156 156.494,212.236 156.079 C 212.315 155.665,212.312 155.065,212.229 154.746 C 212.146 154.427,212.080 154.767,212.084 155.500 M45.195 161.583 C 40.734 172.116,34.633 180.837,30.000 183.307 C 28.874 183.907,27.884 184.329,27.800 184.245 C 27.716 184.161,27.041 182.834,26.299 181.296 C 22.592 173.611,16.641 166.786,9.958 162.553 L 8.082 161.365 8.877 163.933 C 11.342 171.897,10.556 176.549,5.137 186.048 C 2.900 189.969,2.663 191.093,3.643 193.118 C 6.234 198.469,18.736 201.167,35.667 200.029 C 44.637 199.426,43.695 199.807,45.656 195.989 C 51.603 184.411,52.335 172.056,47.665 162.083 C 46.122 158.789,46.358 158.837,45.195 161.583 M352.391 162.000 C 347.658 171.982,348.369 184.357,354.344 195.989 C 356.305 199.807,355.363 199.426,364.333 200.029 C 381.264 201.167,393.766 198.469,396.357 193.118 C 397.356 191.054,397.105 189.981,394.587 185.549 C 389.540 176.666,388.759 172.327,390.865 164.878 C 391.895 161.235,391.984 161.300,388.801 163.364 C 383.365 166.886,377.014 174.430,373.701 181.296 C 372.959 182.834,372.284 184.161,372.200 184.245 C 371.760 184.685,367.762 181.996,365.862 179.982 C 362.332 176.240,357.355 167.797,354.084 160.000 C 353.753 159.213,353.659 159.324,352.391 162.000 M189.794 165.167 C 189.795 167.367,189.849 168.223,189.914 167.070 C 189.979 165.917,189.979 164.117,189.913 163.070 C 189.847 162.023,189.793 162.967,189.794 165.167 M192.457 164.667 C 192.457 166.592,192.512 167.379,192.579 166.417 C 192.646 165.454,192.646 163.879,192.579 162.917 C 192.512 161.954,192.457 162.742,192.457 164.667 M212.122 177.833 C 212.123 179.667,212.179 180.374,212.246 179.405 C 212.314 178.437,212.313 176.937,212.245 176.072 C 212.176 175.207,212.121 176.000,212.122 177.833 M209.455 178.500 C 209.456 180.333,209.512 181.041,209.579 180.072 C 209.647 179.104,209.646 177.604,209.578 176.739 C 209.509 175.874,209.454 176.667,209.455 178.500 M192.126 186.000 C 192.126 188.108,192.180 188.971,192.246 187.917 C 192.312 186.862,192.312 185.137,192.246 184.083 C 192.180 183.029,192.126 183.892,192.126 186.000 M189.461 186.833 C 189.461 189.033,189.515 189.890,189.580 188.737 C 189.646 187.584,189.645 185.784,189.579 184.737 C 189.513 183.690,189.460 184.633,189.461 186.833 M51.375 190.926 C 50.397 193.738,47.243 200.197,46.249 201.423 C 45.168 202.755,41.646 203.125,29.831 203.148 L 20.162 203.167 20.772 205.500 C 22.196 210.950,21.355 215.788,18.570 218.172 C 16.904 219.598,15.430 219.240,32.834 221.642 C 51.834 224.265,50.481 224.290,53.465 221.250 C 61.208 213.362,61.257 202.734,53.606 190.926 L 52.154 188.686 51.375 190.926 M346.266 191.107 C 338.743 202.638,338.850 213.503,346.562 221.250 L 348.968 223.667 351.067 223.674 C 352.704 223.679,382.832 219.746,383.270 219.469 C 383.327 219.433,382.980 219.010,382.499 218.529 C 379.749 215.780,378.998 210.162,380.534 203.833 C 380.693 203.178,380.522 203.166,370.431 203.142 C 358.138 203.113,354.850 202.774,353.757 201.424 C 352.731 200.157,349.878 194.366,348.755 191.274 L 347.827 188.714 346.266 191.107 M216.093 191.579 C 216.970 191.648,218.320 191.647,219.093 191.577 C 219.867 191.507,219.150 191.451,217.500 191.452 C 215.850 191.453,215.217 191.510,216.093 191.579 M215.093 194.245 C 215.970 194.314,217.320 194.313,218.093 194.244 C 218.867 194.174,218.150 194.117,216.500 194.118 C 214.850 194.119,214.217 194.177,215.093 194.245 M12.817 225.272 C 12.532 229.074,12.827 235.834,13.539 241.833 C 23.232 323.483,124.298 382.081,231.667 368.304 C 321.552 356.770,387.661 298.334,387.815 230.280 C 387.825 225.942,387.758 222.325,387.667 222.243 C 387.533 222.124,349.353 227.314,349.093 227.487 C 349.053 227.514,348.433 229.853,347.717 232.685 C 330.376 301.229,244.209 343.918,160.500 325.436 C 106.035 313.411,64.193 277.070,52.842 231.934 L 51.727 227.500 33.780 224.971 C 23.909 223.580,15.209 222.358,14.445 222.256 L 13.057 222.071 12.817 225.272 M360.256 241.183 C 363.743 242.640,364.985 245.669,363.666 249.503 C 362.865 251.831,362.455 251.400,367.161 253.186 C 369.307 253.999,371.181 254.739,371.327 254.829 C 371.690 255.054,370.328 258.667,369.880 258.667 C 369.006 258.667,349.679 251.127,349.673 250.783 C 349.661 250.069,352.107 244.509,353.037 243.134 C 354.615 240.804,357.490 240.027,360.256 241.183 M48.093 244.417 C 50.006 251.086,49.411 253.554,45.497 255.189 C 41.587 256.823,37.926 254.888,36.631 250.501 C 36.101 248.704,36.571 248.732,31.460 250.198 C 29.163 250.856,27.236 251.344,27.176 251.281 C 26.907 250.995,26.021 247.534,26.178 247.378 C 26.368 247.187,46.271 241.390,46.855 241.355 C 47.050 241.343,47.607 242.721,48.093 244.417 M357.132 245.016 C 356.535 245.237,354.770 248.217,355.064 248.507 C 355.214 248.655,358.797 250.000,359.040 250.000 C 359.426 250.000,360.080 247.032,359.875 246.214 C 359.638 245.269,358.175 244.631,357.132 245.016 M41.777 247.229 L 40.054 247.737 40.536 249.102 C 41.820 252.742,45.383 252.466,44.876 248.766 C 44.551 246.399,44.566 246.406,41.777 247.229 M355.090 256.214 C 366.174 262.078,368.010 264.444,365.412 269.518 C 362.168 275.852,359.202 275.539,344.070 267.267 L 341.639 265.938 342.531 264.386 C 343.021 263.532,343.522 262.720,343.645 262.583 C 343.768 262.445,347.010 263.981,350.851 265.997 C 359.577 270.577,361.268 270.715,361.888 266.897 C 362.176 265.122,361.188 264.343,353.398 260.203 C 346.808 256.701,346.642 256.587,347.099 255.886 C 347.357 255.491,347.819 254.679,348.126 254.083 C 348.826 252.724,348.033 252.482,355.090 256.214 M52.926 258.909 C 54.733 263.275,54.922 264.733,53.933 266.662 C 52.195 270.054,47.934 271.361,45.027 269.395 L 43.554 268.399 40.411 272.283 C 38.683 274.419,37.137 276.306,36.976 276.476 C 36.702 276.763,35.000 273.452,35.000 272.633 C 35.000 272.442,36.429 270.550,38.175 268.429 C 39.922 266.308,41.292 264.514,41.221 264.443 C 41.149 264.371,39.263 265.085,37.029 266.029 C 34.794 266.972,32.882 267.660,32.779 267.557 C 32.676 267.454,32.238 266.607,31.806 265.674 L 31.021 263.979 32.094 263.482 C 35.561 261.875,51.201 255.420,51.372 255.525 C 51.485 255.594,52.184 257.117,52.926 258.909 M47.083 261.733 C 45.098 262.515,45.087 262.543,46.015 264.363 C 47.798 267.857,51.263 266.004,49.797 262.340 C 49.180 260.798,49.355 260.838,47.083 261.733 M60.482 274.045 C 62.753 277.978,63.296 279.156,62.947 279.391 C 62.284 279.838,60.053 281.000,59.858 281.000 C 59.765 281.000,58.850 279.575,57.825 277.833 C 56.800 276.092,55.889 274.667,55.801 274.667 C 55.441 274.667,53.031 276.014,52.841 276.321 C 52.728 276.503,53.487 278.097,54.527 279.864 C 56.035 282.427,56.324 283.138,55.958 283.384 C 55.309 283.821,53.057 285.000,52.872 285.000 C 52.786 285.000,51.946 283.653,51.004 282.006 C 48.887 278.308,49.056 278.399,46.746 279.697 C 44.191 281.134,43.936 281.350,44.282 281.794 C 44.442 281.999,45.337 283.472,46.271 285.068 L 47.969 287.969 46.132 289.020 C 45.121 289.598,44.253 290.018,44.204 289.952 C 43.106 288.504,38.423 279.777,38.631 279.569 C 39.122 279.078,56.810 269.021,57.201 269.010 C 57.404 269.005,58.880 271.270,60.482 274.045 M198.170 274.250 C 196.207 279.917,197.045 279.307,190.823 279.592 L 185.529 279.833 189.765 282.990 C 192.094 284.726,193.997 286.301,193.994 286.490 C 193.991 286.679,193.319 288.999,192.501 291.646 C 191.683 294.293,191.053 296.497,191.100 296.545 C 191.148 296.592,193.123 295.289,195.489 293.649 C 200.632 290.083,199.324 290.083,204.492 293.648 C 206.869 295.288,208.849 296.595,208.892 296.553 C 208.934 296.510,208.301 294.306,207.485 291.655 C 206.668 289.003,206.000 286.679,206.000 286.490 C 206.000 286.301,207.906 284.726,210.236 282.990 L 214.471 279.833 209.354 279.600 C 206.539 279.472,204.064 279.301,203.853 279.221 C 203.643 279.140,202.739 276.957,201.846 274.370 C 200.953 271.783,200.117 269.667,199.990 269.667 C 199.863 269.667,199.044 271.729,198.170 274.250 M348.464 271.831 C 357.380 276.049,357.541 288.071,348.739 292.404 C 341.225 296.104,332.164 290.401,332.208 282.000 C 332.251 273.725,340.957 268.279,348.464 271.831 M340.500 275.632 C 334.866 278.241,335.048 285.857,340.810 288.540 C 348.043 291.908,354.574 282.959,348.972 277.356 C 346.690 275.074,343.227 274.369,340.500 275.632 M66.253 282.547 C 69.576 285.190,70.225 291.411,67.120 290.860 C 64.588 290.410,64.581 290.404,64.800 288.884 C 65.031 287.279,64.510 286.028,63.449 285.641 C 61.982 285.105,61.658 285.846,61.176 290.844 C 60.565 297.174,59.880 298.624,56.833 300.035 C 51.681 302.420,45.845 296.005,48.150 290.489 C 48.717 289.130,48.745 289.126,50.934 290.035 C 52.507 290.689,52.602 290.794,52.312 291.557 C 51.451 293.822,52.566 296.333,54.433 296.333 C 55.986 296.333,56.381 295.375,56.840 290.490 C 57.345 285.119,58.067 283.302,60.186 282.069 C 62.052 280.984,64.534 281.180,66.253 282.547 M330.908 288.200 C 333.113 289.481,334.141 291.519,333.898 294.127 L 333.704 296.205 338.602 297.644 C 341.296 298.435,343.566 299.142,343.646 299.215 C 343.906 299.451,340.877 302.333,340.368 302.333 C 340.097 302.333,337.888 301.733,335.460 301.000 C 333.032 300.267,330.925 299.667,330.779 299.667 C 330.632 299.667,331.974 301.134,333.760 302.927 L 337.008 306.187 335.500 307.667 L 333.992 309.146 330.579 305.824 C 328.702 303.997,325.180 300.555,322.753 298.175 L 318.338 293.848 320.253 291.901 C 325.054 287.016,327.441 286.188,330.908 288.200 M74.125 292.546 L 75.343 293.925 68.422 300.046 C 64.615 303.412,60.931 306.678,60.235 307.303 L 58.969 308.439 57.642 307.142 C 56.912 306.429,56.356 305.645,56.407 305.400 C 56.535 304.786,72.450 290.668,72.703 290.945 C 72.815 291.067,73.455 291.787,74.125 292.546 M325.651 292.554 L 324.300 293.774 325.719 295.220 C 327.443 296.977,327.555 296.979,328.917 295.280 C 331.286 292.323,328.490 289.989,325.651 292.554 M80.011 298.677 C 81.624 300.150,83.407 302.075,83.972 302.956 C 89.048 310.867,79.723 322.297,70.889 318.992 C 69.042 318.301,62.060 312.495,62.260 311.816 C 62.414 311.295,76.454 296.000,76.779 296.000 C 76.944 296.000,78.399 297.205,80.011 298.677 M318.482 300.583 C 318.203 302.887,318.241 302.837,316.851 302.718 C 310.142 302.140,305.676 310.053,309.917 315.007 C 314.014 319.794,322.431 317.528,322.930 311.503 C 323.117 309.251,323.152 309.251,320.336 311.498 L 318.041 313.329 316.854 311.880 C 315.335 310.027,315.033 310.532,319.889 306.810 C 324.591 303.207,324.632 303.199,325.914 305.702 C 331.766 317.126,315.977 327.717,307.155 318.286 C 300.041 310.681,305.492 298.746,316.107 298.682 L 318.715 298.667 318.482 300.583 M72.490 306.701 L 67.862 311.759 69.181 312.894 C 76.524 319.216,85.457 309.828,78.550 303.049 L 77.118 301.644 72.490 306.701 M96.603 311.911 L 100.705 314.725 100.131 315.612 C 98.257 318.508,98.682 318.475,95.112 316.000 C 91.671 313.614,91.941 313.648,90.700 315.452 L 89.701 316.903 92.573 318.868 C 94.153 319.949,95.602 320.937,95.793 321.063 C 96.010 321.207,95.717 321.897,95.013 322.897 C 94.392 323.779,93.857 324.541,93.822 324.592 C 93.788 324.643,92.305 323.690,90.525 322.475 C 88.746 321.260,87.253 320.318,87.207 320.383 C 87.162 320.447,86.433 321.486,85.587 322.692 L 84.049 324.884 87.191 326.999 C 88.919 328.162,90.333 329.216,90.333 329.340 C 90.333 329.510,88.881 331.688,88.164 332.594 C 88.059 332.726,78.333 325.987,78.333 325.783 C 78.333 325.691,81.127 321.648,84.541 316.797 L 90.749 307.977 91.625 308.538 C 92.106 308.846,94.346 310.364,96.603 311.911 M294.281 331.257 C 296.751 336.103,296.730 335.667,294.548 336.737 L 292.762 337.613 290.522 333.390 L 288.282 329.167 283.141 325.602 C 277.990 322.031,277.562 321.853,278.509 323.684 L 279.017 324.667 277.165 325.487 L 275.313 326.306 275.774 327.403 C 276.028 328.006,277.533 331.527,279.118 335.227 C 280.703 338.927,282.000 342.108,282.000 342.295 C 282.000 342.645,279.231 344.000,278.514 344.000 C 278.294 344.000,276.572 340.400,274.687 336.000 C 272.803 331.600,271.221 328.000,271.173 328.000 C 271.124 328.000,270.375 328.314,269.507 328.698 C 267.726 329.486,267.634 329.438,266.702 327.254 C 265.901 325.378,265.285 325.859,272.128 323.022 C 274.856 321.890,277.944 320.533,278.990 320.005 L 280.891 319.045 284.362 321.490 L 287.833 323.934 288.000 319.597 L 288.167 315.261 290.000 314.332 L 291.833 313.403 292.031 320.317 L 292.228 327.231 294.281 331.257 M103.637 316.485 C 105.509 317.434,105.289 316.510,106.176 327.167 C 106.466 330.650,106.743 333.642,106.790 333.816 C 106.838 333.989,108.342 331.402,110.131 328.066 C 111.921 324.730,113.529 322.000,113.704 322.000 C 115.019 322.000,117.328 323.722,116.956 324.426 C 116.741 324.833,114.586 328.842,112.167 333.333 C 109.747 337.825,107.591 341.834,107.376 342.243 L 106.984 342.985 105.197 342.109 C 103.112 341.086,103.344 341.952,102.496 332.000 C 102.191 328.425,101.874 325.284,101.791 325.020 C 101.707 324.756,100.202 327.231,98.446 330.520 C 96.690 333.809,95.214 336.545,95.166 336.599 C 94.998 336.792,91.327 334.854,91.413 334.618 C 91.807 333.536,101.560 315.685,101.761 315.677 C 101.905 315.671,102.749 316.035,103.637 316.485 M123.412 326.026 C 129.568 328.477,129.265 328.205,128.351 330.456 L 127.609 332.285 126.110 331.642 C 125.286 331.289,124.431 331.000,124.211 331.000 C 123.991 331.000,122.327 334.600,120.514 339.000 C 118.701 343.400,117.113 347.000,116.986 347.000 C 116.417 347.000,113.333 345.547,113.333 345.279 C 113.333 345.114,114.763 341.504,116.510 337.257 C 120.014 328.739,119.972 328.984,118.019 328.340 C 116.227 327.748,116.213 327.711,117.048 325.704 C 117.911 323.626,117.309 323.596,123.412 326.026 M268.642 336.458 C 270.688 341.935,272.318 346.459,272.264 346.512 C 271.893 346.877,268.482 347.942,268.314 347.745 C 268.010 347.389,260.995 328.240,260.998 327.773 C 261.000 327.317,264.396 325.951,264.710 326.280 C 264.826 326.401,266.595 330.981,268.642 336.458 M132.191 329.211 C 133.094 329.510,133.946 329.856,134.084 329.978 C 134.304 330.174,127.703 350.075,127.277 350.501 C 127.096 350.682,123.985 349.713,123.576 349.348 C 123.385 349.178,127.611 336.178,130.163 329.083 C 130.348 328.567,130.225 328.560,132.191 329.211 M257.013 330.673 C 260.437 332.420,261.434 337.343,258.940 340.184 L 257.890 341.380 261.679 345.179 C 263.762 347.268,265.399 349.039,265.317 349.115 C 265.234 349.190,264.280 349.506,263.197 349.817 L 261.227 350.383 257.525 346.691 C 255.489 344.661,253.729 343.000,253.615 343.000 C 253.500 343.000,253.990 344.891,254.703 347.202 C 255.416 349.514,256.000 351.534,256.000 351.693 C 256.000 352.056,252.357 353.135,252.077 352.855 C 251.857 352.635,245.642 332.242,245.762 332.135 C 247.282 330.781,255.206 329.752,257.013 330.673 M145.943 333.291 C 146.736 333.465,147.456 333.678,147.543 333.765 C 147.716 333.938,150.332 355.029,150.333 356.256 C 150.333 357.073,150.057 357.068,147.333 356.203 C 146.186 355.838,146.162 355.793,145.892 353.479 L 145.618 351.125 141.726 350.181 C 139.585 349.662,137.669 349.177,137.469 349.103 C 137.200 349.004,135.138 351.388,134.182 352.903 C 134.125 352.993,130.202 351.973,130.055 351.830 C 129.725 351.508,143.524 332.682,143.989 332.821 C 144.270 332.906,145.149 333.117,145.943 333.291 M244.159 340.417 C 246.347 350.493,246.288 351.997,243.611 354.569 C 239.567 358.454,232.993 356.811,231.363 351.509 C 230.577 348.953,227.878 336.344,228.074 336.148 C 228.292 335.930,231.999 335.216,232.114 335.369 C 232.168 335.441,232.924 338.875,233.794 343.000 C 235.770 352.366,236.316 353.269,239.443 352.338 C 241.952 351.590,241.978 350.859,239.843 340.833 C 238.230 333.256,238.199 333.960,240.167 333.483 C 241.083 333.261,241.994 333.061,242.191 333.040 C 242.395 333.017,243.243 336.196,244.159 340.417 M251.779 334.658 C 251.065 334.954,251.063 334.975,251.603 336.989 C 252.200 339.216,252.645 339.364,255.060 338.130 C 258.102 336.576,255.021 333.316,251.779 334.658 M161.265 336.500 C 161.319 336.547,160.745 340.442,159.989 345.156 C 159.233 349.869,158.679 353.790,158.759 353.870 C 158.860 353.971,164.085 354.993,164.533 355.000 C 164.609 355.001,163.959 358.819,163.867 358.911 C 163.727 359.051,154.002 357.447,153.807 357.252 C 153.661 357.106,156.844 336.939,157.141 336.129 C 157.257 335.813,160.845 336.136,161.265 336.500 M221.148 337.171 C 222.538 337.400,224.958 338.547,226.305 339.615 L 227.111 340.253 225.848 341.793 C 224.385 343.579,224.540 343.526,223.323 342.660 C 217.933 338.822,210.933 342.059,210.933 348.390 C 210.933 355.261,219.055 358.278,224.065 353.268 L 225.374 351.959 227.046 353.230 L 228.718 354.500 226.720 356.382 C 224.062 358.886,221.819 359.762,218.000 359.785 C 203.883 359.869,202.418 339.381,216.373 337.039 C 218.152 336.741,218.609 336.754,221.148 337.171 M186.500 339.163 C 187.233 339.591,188.252 340.381,188.763 340.919 L 189.693 341.898 188.207 343.116 C 186.412 344.587,186.370 344.590,185.167 343.333 C 183.706 341.808,181.333 342.052,181.333 343.727 C 181.333 344.054,182.853 345.786,184.711 347.577 C 189.085 351.794,190.136 354.171,188.978 357.228 C 187.409 361.368,180.940 362.328,177.439 358.939 C 176.467 357.999,175.398 356.113,175.705 355.882 C 177.084 354.842,179.155 353.965,179.286 354.364 C 180.024 356.606,183.037 357.660,184.506 356.191 C 185.731 354.966,185.139 353.814,181.630 350.597 C 176.454 345.850,175.620 342.183,179.110 339.521 C 181.347 337.814,183.969 337.687,186.500 339.163 M204.667 340.631 C 204.667 343.017,204.698 343.000,200.306 343.000 L 197.000 343.000 197.000 344.833 L 197.000 346.667 200.792 346.667 L 204.583 346.667 204.792 347.708 C 204.906 348.281,205.000 349.168,205.000 349.679 L 205.000 350.608 201.000 350.847 L 197.000 351.086 197.005 353.126 C 197.013 356.824,196.817 356.670,201.202 356.435 L 205.000 356.231 205.000 358.416 L 205.000 360.601 199.083 360.732 C 195.829 360.803,193.128 360.842,193.080 360.817 C 193.032 360.791,192.896 355.881,192.776 349.904 L 192.560 339.036 194.530 338.915 C 195.613 338.848,198.338 338.764,200.583 338.730 L 204.667 338.667 204.667 340.631 M141.776 342.263 C 140.645 343.859,139.769 345.213,139.830 345.274 C 140.025 345.469,144.804 346.641,144.922 346.523 C 145.108 346.337,144.230 339.332,144.023 339.348 C 143.919 339.356,142.908 340.668,141.776 342.263 " stroke="none" fill="#cdcece" fill-rule="evenodd"></path><path id="path4" d="M74.417 135.250 C 74.522 234.744,74.322 226.028,76.702 235.000 C 81.492 253.055,95.041 270.333,114.459 283.147 C 120.342 287.029,127.977 291.239,128.279 290.767 C 128.400 290.576,132.400 285.434,137.167 279.339 C 141.933 273.243,145.800 268.137,145.760 267.991 C 145.720 267.846,132.909 247.500,117.291 222.780 C 101.674 198.059,88.601 177.341,88.242 176.739 L 87.588 175.645 92.377 160.161 C 95.011 151.645,97.243 144.675,97.337 144.672 C 97.524 144.666,158.333 263.706,158.333 264.077 C 158.333 264.203,153.161 271.019,146.839 279.225 C 140.517 287.430,135.454 294.249,135.589 294.377 C 136.075 294.839,141.833 297.007,142.201 296.866 C 142.489 296.756,165.238 268.088,167.248 265.301 C 167.604 264.808,162.961 255.249,134.609 198.117 C 116.430 161.482,101.556 131.343,101.556 131.142 C 101.556 130.640,111.730 97.892,111.979 97.594 C 112.190 97.341,182.667 258.565,182.667 259.301 C 182.667 259.538,175.917 268.829,167.668 279.949 C 159.419 291.069,152.669 300.260,152.668 300.374 C 152.666 300.668,159.634 302.457,165.333 303.625 C 186.856 308.037,211.355 308.160,233.000 303.966 C 238.538 302.893,247.326 300.732,247.771 300.334 C 247.919 300.201,241.273 290.963,233.001 279.805 C 224.185 267.913,218.021 259.307,218.107 259.009 C 218.355 258.144,288.372 97.848,288.610 97.602 C 288.733 97.474,291.201 104.991,294.096 114.304 L 299.358 131.239 266.230 198.006 L 233.102 264.774 245.740 280.852 L 258.377 296.930 261.272 295.764 C 262.864 295.123,264.423 294.461,264.737 294.294 C 265.270 294.010,260.163 287.124,242.615 264.463 C 242.356 264.128,302.470 145.730,303.341 144.859 C 303.520 144.680,303.667 144.644,303.667 144.779 C 303.667 144.914,305.767 151.764,308.333 160.000 C 310.900 168.236,313.000 175.219,313.000 175.516 C 313.000 175.814,300.147 196.407,284.438 221.279 C 268.728 246.150,255.655 266.883,255.386 267.351 C 254.954 268.102,267.413 285.116,272.184 290.291 C 272.537 290.674,273.213 290.414,276.328 288.699 C 305.350 272.723,322.796 249.629,325.311 223.859 C 325.553 221.385,325.667 192.241,325.667 132.942 L 325.667 45.667 199.995 45.667 L 74.323 45.667 74.417 135.250 M94.799 55.752 C 95.697 58.364,96.497 60.575,96.576 60.667 C 96.655 60.758,99.131 60.908,102.076 61.000 L 107.433 61.167 103.232 64.333 C 100.921 66.075,99.029 67.725,99.027 68.000 C 99.024 68.275,99.672 70.600,100.467 73.167 C 101.262 75.733,101.876 77.877,101.831 77.931 C 101.786 77.984,99.776 76.658,97.363 74.983 C 93.228 72.113,92.934 71.966,92.238 72.423 C 91.832 72.689,89.860 74.050,87.854 75.447 C 85.849 76.844,84.163 77.940,84.106 77.884 C 84.049 77.827,84.695 75.498,85.542 72.708 C 86.388 69.919,87.025 67.591,86.957 67.536 C 86.889 67.480,84.897 65.987,82.531 64.217 L 78.229 61.000 83.384 61.000 C 89.662 61.000,89.165 61.346,91.164 55.583 C 92.038 53.063,92.847 51.001,92.960 51.002 C 93.074 51.004,93.901 53.141,94.799 55.752 M308.525 56.586 L 310.218 61.500 315.025 61.740 C 317.670 61.872,320.105 62.022,320.438 62.073 C 320.844 62.136,319.675 63.200,316.855 65.333 C 314.552 67.075,312.668 68.617,312.667 68.761 C 312.667 68.905,313.339 71.220,314.161 73.906 C 314.983 76.592,315.620 78.822,315.578 78.861 C 315.535 78.901,313.625 77.607,311.333 75.987 C 306.270 72.407,307.224 72.409,302.103 75.969 C 299.755 77.602,297.799 78.905,297.757 78.865 C 297.715 78.825,298.350 76.626,299.168 73.979 C 299.986 71.332,300.658 68.994,300.661 68.783 C 300.664 68.573,298.783 66.998,296.480 65.283 C 293.682 63.200,292.494 62.136,292.897 62.073 C 293.229 62.022,295.664 61.872,298.308 61.740 L 303.116 61.500 304.808 56.586 C 305.739 53.884,306.575 51.672,306.667 51.672 C 306.758 51.672,307.595 53.884,308.525 56.586 M150.787 102.429 L 175.408 152.167 173.862 171.500 C 173.012 182.133,172.320 190.946,172.325 191.083 C 172.329 191.221,176.136 191.333,180.784 191.333 L 189.235 191.333 189.451 184.250 C 189.799 172.844,189.772 159.257,189.401 158.313 C 188.451 155.902,184.984 154.333,180.606 154.333 C 177.488 154.333,177.500 154.390,179.947 151.295 C 191.996 136.059,207.890 135.198,211.587 149.580 C 212.108 151.606,212.163 153.847,212.129 171.793 L 212.092 191.752 214.095 191.543 C 215.196 191.428,218.892 191.333,222.308 191.333 L 228.518 191.333 226.934 171.822 L 225.351 152.310 242.390 117.905 C 251.761 98.982,262.861 76.542,267.057 68.037 C 271.253 59.533,274.748 52.637,274.825 52.714 C 274.902 52.790,277.143 59.848,279.807 68.398 L 284.650 83.943 256.953 138.722 C 241.720 168.850,229.162 193.598,229.045 193.719 C 228.929 193.839,224.445 194.045,219.081 194.178 L 209.330 194.418 209.415 173.459 C 209.507 150.732,209.489 150.468,207.624 146.833 C 203.946 139.664,194.203 140.712,185.490 149.213 L 183.191 151.456 185.687 152.215 C 188.550 153.086,190.613 154.638,191.761 156.786 C 192.528 158.220,192.734 176.809,192.125 189.750 L 191.926 194.000 181.869 194.000 L 171.812 194.000 144.072 139.174 C 128.816 109.019,116.327 84.157,116.319 83.924 C 116.298 83.326,125.797 52.675,126.000 52.684 C 126.092 52.688,137.246 75.074,150.787 102.429 M200.982 55.814 L 201.747 56.628 201.372 61.897 C 200.861 69.101,200.879 70.333,201.500 70.333 C 201.775 70.333,202.000 70.152,202.000 69.930 C 202.000 69.191,203.430 58.502,203.547 58.363 C 203.611 58.288,203.942 58.479,204.284 58.789 C 204.924 59.368,204.783 60.416,202.821 69.693 C 202.656 70.469,202.778 70.594,204.069 70.980 C 204.856 71.215,206.026 71.675,206.669 72.002 L 207.837 72.597 211.105 67.799 C 213.811 63.824,214.511 63.000,215.186 63.000 C 216.314 63.000,216.411 62.828,212.336 68.096 C 208.885 72.559,208.430 73.345,209.188 73.538 C 209.359 73.582,211.516 71.304,213.979 68.476 C 218.292 63.524,218.505 63.333,219.729 63.333 C 220.976 63.333,221.000 63.357,220.998 64.583 C 220.995 65.780,220.775 66.025,215.831 70.319 C 212.991 72.786,210.667 74.915,210.667 75.049 C 210.667 76.094,211.955 75.252,220.583 68.574 C 220.895 68.333,220.998 68.493,220.991 69.209 C 220.984 70.068,220.502 70.485,216.320 73.254 L 211.657 76.342 212.292 77.588 C 212.640 78.273,213.108 79.442,213.330 80.187 L 213.734 81.540 219.423 80.435 C 224.748 79.401,225.150 79.366,225.724 79.885 C 226.558 80.640,226.723 80.588,221.137 81.337 C 214.110 82.279,214.000 82.302,214.000 82.848 C 214.000 83.423,213.916 83.422,221.833 82.867 L 227.833 82.447 228.757 83.293 L 229.682 84.139 228.757 85.052 L 227.833 85.964 221.333 85.494 C 217.758 85.235,214.646 85.018,214.417 85.012 C 213.683 84.991,213.972 85.981,214.750 86.154 C 215.162 86.246,217.894 86.630,220.820 87.008 C 226.831 87.784,226.550 87.700,225.705 88.465 C 225.106 89.007,224.796 88.984,219.763 88.019 C 213.259 86.771,213.799 86.751,213.314 88.250 C 213.092 88.938,212.629 90.059,212.285 90.742 L 211.661 91.984 216.247 95.040 C 218.770 96.720,220.882 98.135,220.942 98.184 C 221.001 98.232,221.001 98.668,220.942 99.152 C 220.837 100.000,220.655 99.896,216.041 96.356 C 211.711 93.035,210.667 92.446,210.667 93.324 C 210.667 93.480,212.987 95.609,215.822 98.054 C 220.751 102.304,220.979 102.555,220.989 103.750 C 221.000 104.981,220.980 105.000,219.712 105.000 C 218.468 105.000,218.266 104.822,213.855 99.828 C 211.343 96.983,209.137 94.748,208.954 94.862 C 208.433 95.184,208.736 95.667,212.482 100.485 C 216.414 105.541,216.347 105.418,215.083 105.272 C 214.317 105.184,213.647 104.397,211.000 100.472 L 207.833 95.778 205.833 96.721 C 204.733 97.240,203.559 97.665,203.224 97.666 C 202.733 97.666,202.652 97.847,202.808 98.583 C 204.773 107.853,204.923 108.966,204.284 109.545 C 203.942 109.854,203.611 110.045,203.547 109.970 C 203.430 109.831,202.000 99.143,202.000 98.404 C 202.000 98.182,201.775 98.000,201.500 98.000 C 200.879 98.000,200.861 99.232,201.373 106.451 L 201.749 111.736 200.874 112.610 L 200.000 113.485 199.123 112.608 L 198.247 111.732 198.623 106.073 C 199.114 98.705,199.107 98.000,198.544 98.000 C 198.205 98.000,197.900 99.471,197.350 103.750 C 196.444 110.802,196.489 110.640,195.676 109.811 C 195.020 109.142,195.131 108.317,197.183 98.624 C 197.348 97.845,197.247 97.724,196.268 97.531 C 195.662 97.412,194.494 96.971,193.672 96.550 L 192.177 95.786 188.985 100.476 C 186.358 104.337,185.635 105.185,184.897 105.272 C 183.667 105.417,183.653 105.444,186.769 101.415 C 191.425 95.392,191.465 95.332,191.090 94.957 C 190.851 94.718,189.325 96.217,186.154 99.805 C 181.729 104.813,181.518 105.000,180.282 105.000 C 179.021 105.000,179.000 104.979,179.010 103.750 C 179.019 102.555,179.246 102.304,184.176 98.047 C 187.013 95.598,189.333 93.469,189.333 93.317 C 189.333 92.460,188.302 93.041,183.966 96.341 C 178.733 100.324,178.667 100.360,178.667 99.219 C 178.667 98.584,179.568 97.838,183.489 95.225 L 188.311 92.012 187.322 89.923 C 186.779 88.774,186.334 87.646,186.334 87.417 C 186.333 86.846,186.199 86.860,180.247 88.048 C 175.086 89.079,174.981 89.086,174.298 88.468 L 173.603 87.839 174.587 87.638 C 175.129 87.528,177.860 87.156,180.657 86.812 C 185.303 86.242,186.611 85.834,185.941 85.163 C 185.863 85.085,182.736 85.237,178.991 85.501 L 172.182 85.979 171.250 85.087 L 170.318 84.194 171.243 83.314 L 172.167 82.433 178.167 82.859 C 186.103 83.421,186.000 83.422,186.000 82.848 C 186.000 82.292,185.712 82.231,178.871 81.336 C 173.292 80.606,173.430 80.650,174.303 79.860 C 174.914 79.308,175.183 79.329,180.030 80.307 C 186.273 81.567,186.264 81.567,186.541 80.417 C 186.663 79.912,187.117 78.790,187.550 77.923 L 188.338 76.346 183.502 73.185 C 179.378 70.490,178.667 69.900,178.667 69.179 C 178.667 67.973,178.678 67.979,183.938 72.017 C 188.165 75.261,189.333 75.918,189.333 75.049 C 189.333 74.915,187.009 72.786,184.169 70.319 C 179.225 66.025,179.005 65.780,179.002 64.583 C 179.000 63.360,179.027 63.333,180.255 63.333 C 181.458 63.333,181.697 63.547,186.005 68.478 C 190.121 73.188,191.167 74.118,191.167 73.067 C 191.167 72.859,189.554 70.593,187.583 68.032 C 183.596 62.850,183.678 63.000,184.832 63.000 C 185.533 63.000,186.170 63.759,188.865 67.804 L 192.065 72.608 194.116 71.637 C 195.244 71.104,196.441 70.667,196.776 70.667 C 197.267 70.667,197.348 70.487,197.192 69.750 C 195.227 60.480,195.077 59.367,195.716 58.789 C 196.540 58.043,196.477 57.848,197.136 63.167 C 197.996 70.118,198.039 70.333,198.543 70.333 C 199.109 70.333,199.115 69.775,198.620 62.409 L 198.232 56.650 199.008 55.825 C 199.964 54.807,200.036 54.807,200.982 55.814 M201.846 274.370 C 202.739 276.957,203.643 279.140,203.853 279.221 C 204.064 279.301,206.539 279.472,209.354 279.600 L 214.471 279.833 210.236 282.990 C 207.906 284.726,206.000 286.301,206.000 286.490 C 206.000 286.679,206.668 289.003,207.485 291.655 C 208.301 294.306,208.934 296.510,208.892 296.553 C 208.849 296.595,206.869 295.288,204.492 293.648 C 199.324 290.083,200.632 290.083,195.489 293.649 C 193.123 295.289,191.148 296.592,191.100 296.545 C 191.053 296.497,191.683 294.293,192.501 291.646 C 193.319 288.999,193.991 286.679,193.994 286.490 C 193.997 286.301,192.094 284.726,189.765 282.990 L 185.529 279.833 190.823 279.592 C 197.045 279.307,196.207 279.917,198.170 274.250 C 199.044 271.729,199.863 269.667,199.990 269.667 C 200.117 269.667,200.953 271.783,201.846 274.370 " stroke="none" fill="#fcfcfb" fill-rule="evenodd"></path></g></svg>